<?xml version="1.0" standalone="no"?>
<!DOCTYPE svg PUBLIC "-//W3C//DTD SVG 20010904//EN"
 "http://www.w3.org/TR/2001/REC-SVG-20010904/DTD/svg10.dtd">
<svg version="1.0" xmlns="http://www.w3.org/2000/svg"
 width="512.000000pt" height="512.000000pt" viewBox="0 0 512.000000 512.000000"
 preserveAspectRatio="xMidYMid meet">
<metadata>
Created by potrace 1.14, written by Peter Selinger 2001-2017
</metadata>
<g transform="translate(0.000000,512.000000) scale(0.100000,-0.100000)"
fill="#000000" stroke="none">
<path d="M2463 5104 c-62 -23 -136 -94 -163 -155 -17 -42 -23 -77 -27 -173 -2
-67 -6 -135 -9 -153 -7 -48 -65 -101 -224 -205 -197 -128 -280 -214 -280 -291
0 -22 -5 -25 -47 -31 -57 -8 -119 -28 -135 -44 -7 -7 -17 -12 -23 -12 -6 0
-34 -21 -63 -46 -54 -47 -114 -143 -128 -204 -4 -19 -9 -38 -10 -42 -1 -5 -2
-36 -3 -71 -1 -60 -3 -64 -33 -82 -46 -27 -125 -102 -158 -150 -15 -22 -40
-71 -56 -110 l-29 -70 -2 -1400 c-3 -1542 -6 -1466 59 -1587 41 -77 97 -140
169 -189 33 -22 59 -37 59 -34 0 3 10 -1 23 -9 12 -8 51 -22 87 -30 97 -23
2106 -24 2193 -1 188 49 338 200 382 386 13 56 14 243 12 1459 l-2 1395 -23
65 c-40 110 -128 222 -218 274 -30 18 -31 21 -37 106 -9 143 -77 262 -192 335
-54 35 -141 65 -187 65 -15 0 -28 6 -29 13 -5 88 -66 160 -224 264 -55 36
-116 77 -136 90 -63 41 -119 94 -136 127 -12 23 -17 64 -19 156 -3 135 -15
187 -61 253 -25 36 -113 107 -113 91 0 -3 -7 -1 -15 6 -23 19 -153 22 -202 4z"/>
</g>
</svg>
