<?xml version="1.0" standalone="no"?>
<!DOCTYPE svg PUBLIC "-//W3C//DTD SVG 20010904//EN"
 "http://www.w3.org/TR/2001/REC-SVG-20010904/DTD/svg10.dtd">
<svg version="1.0" xmlns="http://www.w3.org/2000/svg"
 width="512.000000pt" height="512.000000pt" viewBox="0 0 512.000000 512.000000"
 preserveAspectRatio="xMidYMid meet">
<metadata>
Created by potrace 1.14, written by Peter Selinger 2001-2017
</metadata>
<g transform="translate(0.000000,512.000000) scale(0.100000,-0.100000)"
fill="#000000" stroke="none">
<path d="M2835 4396 c-187 -59 -351 -250 -385 -448 -10 -56 -9 -83 10 -193 12
-71 39 -199 61 -284 39 -153 62 -341 43 -341 -5 0 -45 7 -89 16 -116 24 -386
25 -480 1 -112 -28 -220 -86 -320 -172 -49 -42 -112 -88 -140 -102 -189 -95
-311 -224 -364 -387 -12 -33 -30 -123 -40 -198 -44 -307 -122 -514 -220 -589
-66 -49 -81 -68 -81 -97 0 -45 29 -73 86 -83 162 -28 537 -20 740 15 43 8 80
13 81 12 2 -1 -20 -74 -47 -161 -28 -88 -50 -169 -50 -180 0 -30 34 -63 78
-74 20 -5 109 -28 197 -51 88 -23 177 -46 198 -51 l37 -10 0 -120 c0 -158 15
-189 90 -189 19 0 36 9 49 26 18 23 21 41 21 134 l0 108 133 -34 c72 -18 146
-34 163 -34 37 0 74 36 74 73 0 50 -35 72 -170 107 -69 17 -142 36 -162 41
l-38 10 0 318 0 318 57 39 c107 72 232 210 401 439 183 249 240 352 277 500
38 152 48 254 42 415 -5 147 -13 201 -49 323 -10 38 -18 70 -16 72 2 2 35 9
73 15 38 6 97 23 130 38 l60 27 299 3 c282 2 298 2 293 -15 -2 -10 -65 -160
-138 -333 l-133 -315 0 -95 c-1 -86 2 -101 30 -160 37 -78 99 -141 174 -178
47 -23 67 -27 140 -27 72 1 94 5 142 28 208 101 253 378 132 801 -41 141 -126
362 -157 406 -17 25 -71 54 -262 144 -306 144 -305 143 -305 164 0 72 -123
208 -242 268 -133 67 -318 93 -423 60z m255 -163 c112 -31 212 -99 244 -167
22 -46 20 -118 -3 -164 -74 -145 -287 -212 -466 -146 -89 34 -132 35 -157 5
-43 -54 -12 -113 77 -146 28 -10 55 -23 62 -29 6 -6 28 -85 49 -176 34 -148
38 -180 38 -305 0 -215 -49 -404 -143 -547 -92 -141 -315 -434 -380 -499 -257
-257 -681 -399 -1188 -399 l-134 0 26 43 c84 136 135 305 175 586 20 137 46
213 95 277 28 36 113 109 120 103 2 -3 -5 -38 -15 -79 -36 -137 -53 -288 -54
-468 l-1 -174 30 -25 c28 -25 32 -25 123 -19 324 23 607 161 878 431 151 149
224 243 224 287 0 34 -39 78 -70 78 -36 0 -56 -17 -123 -103 -169 -216 -412
-397 -645 -481 -61 -22 -217 -56 -255 -56 -14 0 -2 252 19 370 34 197 101 357
186 443 57 57 146 101 249 123 102 22 320 14 444 -17 135 -33 169 -35 193 -11
42 42 54 204 26 353 -8 46 -28 136 -44 199 -44 176 -73 349 -66 399 9 65 64
168 121 227 105 107 207 131 365 87z m464 -431 c-47 -2 -88 -1 -91 1 -2 3 4
20 13 40 l17 35 74 -36 74 -37 -87 -3z m491 -403 c117 -364 119 -607 4 -691
-30 -23 -93 -33 -144 -24 -43 8 -106 63 -130 112 -36 76 -26 116 100 419 121
289 124 295 130 295 2 0 20 -50 40 -111z m-1895 -1968 l0 -249 -157 40 c-87
22 -161 44 -165 47 -6 5 87 323 95 326 1 0 47 19 102 42 55 22 106 41 113 42
9 1 12 -55 12 -248z"/>
<path d="M3055 4085 c-30 -29 -31 -35 -4 -69 25 -32 51 -33 79 -4 27 29 25 52
-6 77 -34 27 -40 26 -69 -4z"/>
</g>
</svg>
