<?xml version="1.0" standalone="no"?>
<!DOCTYPE svg PUBLIC "-//W3C//DTD SVG 20010904//EN"
 "http://www.w3.org/TR/2001/REC-SVG-20010904/DTD/svg10.dtd">
<svg version="1.0" xmlns="http://www.w3.org/2000/svg"
 width="512.000000pt" height="512.000000pt" viewBox="0 0 512.000000 512.000000"
 preserveAspectRatio="xMidYMid meet">
<metadata>
Created by potrace 1.14, written by Peter Selinger 2001-2017
</metadata>
<g transform="translate(0.000000,512.000000) scale(0.100000,-0.100000)"
fill="#000000" stroke="none">
<path d="M2887 4408 c-144 -19 -308 -149 -386 -308 -62 -126 -69 -185 -42
-345 11 -72 39 -201 61 -288 44 -177 63 -337 39 -337 -8 1 -43 7 -79 16 -96
21 -323 30 -417 14 -156 -25 -274 -82 -403 -194 -35 -31 -94 -73 -130 -93
-106 -59 -172 -107 -231 -169 -103 -109 -138 -195 -170 -416 -49 -346 -132
-537 -273 -631 -23 -16 -27 -24 -24 -59 4 -60 31 -75 158 -89 147 -16 504 -5
640 19 58 11 106 19 107 18 1 -1 -20 -71 -47 -156 -27 -85 -50 -167 -50 -181
0 -55 21 -65 267 -129 128 -33 235 -60 238 -60 3 0 5 -58 5 -129 0 -121 2
-132 23 -155 33 -37 84 -39 117 -4 18 19 20 35 20 130 0 69 4 108 11 108 5 0
73 -16 150 -35 129 -33 142 -34 168 -21 32 17 41 34 41 75 0 48 -34 66 -207
111 l-163 43 0 316 1 316 51 35 c105 71 219 192 364 386 247 331 279 390 330
600 48 200 48 439 0 638 -14 56 -27 108 -31 117 -5 12 8 17 71 27 42 7 102 23
133 37 l56 25 297 -2 296 -3 -136 -325 -137 -325 0 -100 c0 -89 3 -106 27
-155 41 -84 90 -135 166 -172 60 -30 76 -33 152 -33 67 0 95 5 135 23 58 27
117 80 150 137 79 135 73 396 -16 695 -40 134 -135 369 -159 395 -10 11 -138
76 -285 145 -263 124 -265 125 -275 161 -6 21 -28 64 -50 96 -104 156 -354
259 -563 231z m227 -183 c242 -85 308 -264 149 -405 -69 -61 -138 -83 -258
-84 -87 0 -108 3 -164 27 -77 32 -91 33 -125 6 -20 -16 -26 -29 -26 -58 0 -47
25 -72 102 -102 65 -25 60 -13 103 -207 53 -231 54 -344 8 -552 -42 -193 -66
-236 -300 -550 -180 -242 -284 -340 -458 -435 -155 -85 -360 -149 -575 -180
-109 -16 -470 -33 -470 -22 0 4 16 35 35 69 71 131 119 298 154 538 23 157 38
206 87 277 31 44 122 129 130 120 2 -2 -4 -25 -12 -52 -31 -105 -55 -282 -61
-457 -9 -254 -1 -266 164 -255 372 25 749 244 1026 597 53 67 67 92 67 119 0
46 -33 81 -75 81 -39 0 -50 -9 -111 -90 -161 -215 -417 -408 -648 -489 -69
-24 -228 -61 -264 -61 -7 0 6 237 18 324 36 254 132 460 250 536 155 100 420
117 691 44 78 -21 95 -22 117 -11 48 22 57 58 57 212 0 128 -4 154 -38 295
-92 377 -99 449 -50 553 39 83 127 177 196 212 70 35 183 35 281 0z m451 -384
c36 -17 65 -32 65 -35 0 -3 -38 -6 -85 -6 l-85 0 17 35 c9 19 18 35 20 35 2 0
33 -13 68 -29z m505 -529 c47 -164 62 -262 58 -381 -2 -90 -7 -114 -28 -156
-70 -136 -263 -120 -325 27 -35 85 -27 109 210 673 l17 40 19 -50 c11 -28 33
-97 49 -153z m-1920 -1880 l0 -248 -162 41 c-90 23 -163 46 -163 51 0 5 22 79
49 165 l49 157 36 11 c21 6 68 24 106 40 39 16 73 30 78 30 4 1 7 -111 7 -247z"/>
<path d="M3050 4090 c-11 -11 -20 -29 -20 -40 0 -11 9 -29 20 -40 11 -11 29
-20 40 -20 11 0 29 9 40 20 11 11 20 29 20 40 0 11 -9 29 -20 40 -11 11 -29
20 -40 20 -11 0 -29 -9 -40 -20z"/>
</g>
</svg>
